{"title":"Gogglebox Au - S04E01","uid":15646275,"size":378231255,"categoryP":"video","categoryS":"tv_shows","magnet":"?xt=urn:btih:261969c2c0ccf65749d648f9d58db5af50d4e16b&amp;dn=Gogglebox+Au+-+S04E01&amp;tr=udp%3A%2F%2Ftracker.leechers-paradise.org%3A6969&amp;tr=udp%3A%2F%2Fzer0day.ch%3A1337&amp;tr=udp%3A%2F%2Fopen.demonii.com%3A1337&amp;tr=udp%3A%2F%2Ftracker.coppersurfer.tk%3A6969&amp;tr=udp%3A%2F%2Fexodus.desync.com%3A6969","seeders":17,"leechers":4,"uploader":"Bullrout","files":1,"time":1472055314,"description":"Gogglebox Au - S04E01\r\n\r\nThe Goggleboxers are back on their couches and sharing their reactions to the week's best TV moments including The Bachelor, Gruen, Survivor, the movie Beaches, and Olympics coverage.\r\n\r\nComplete name                            : Gogglebox Au - S04E01.mp4\r\nFormat                                   : MPEG-4\r\nFormat profile                           : Base Media / Version 2\r\nCodec ID                                 : mp42 (mp42/isom/avc1)\r\nFile size                                : 361 MiB\r\nDuration                                 : 45mn 45s\r\nOverall bit rate mode                    : Variable\r\nOverall bit rate                         : 1 102 Kbps\r\n\r\nVideo\r\nID                                       : 2\r\nFormat                                   : AVC\r\nFormat/Info                              : Advanced Video Codec\r\nFormat profile                           :   \r\nFormat settings, CABAC                   : Yes\r\nFormat settings, ReFrames                : 3 frames\r\nCodec ID                                 : avc1\r\nCodec ID/Info                            : Advanced Video Coding\r\nDuration                                 : 45mn 45s\r\nBit rate mode                            : Variable\r\nBit rate                                 : 971 Kbps\r\nMaximum bit rate                         : 1 000 Kbps\r\nWidth                                    : 720 pixels\r\nHeight                                   : 404 pixels\r\nDisplay aspect ratio                     : 16:9\r\nOriginal display aspect ratio            : 16:9\r\nFrame rate mode                          : Constant\r\nFrame rate                               : 25.000 fps\r\nStandard                                 : PAL\r\nColor space                              : YUV\r\nChroma subsampling                       : 4:2:0\r\nBit depth                                : 8 bits\r\nScan type                                : Progressive\r\nBits/(Pixel*Frame)                       : 0.133\r\nStream size                              : 318 MiB (88%)\r\nWriting library                          : x264 core 112\r\nColor range                              : Limited\r\nColor primaries                          : BT.601 PAL\r\nTransfer characteristics                 : BT.470 System B, BT.470 System G\r\nMatrix coefficients                      : BT.601\r\n\r\nAudio\r\nID                                       : 1\r\nFormat                                   : AAC\r\nFormat/Info                              : Advanced Audio Codec\r\nFormat profile                           : LC\r\nCodec ID                                 : 40\r\nDuration                                 : 45mn 45s\r\nBit rate mode                            : Variable\r\nBit rate                                 : 128 Kbps\r\nMaximum bit rate                         : 576 Kbps\r\nChannel(s)                               : 2 channels\r\nChannel positions                        : Front: L R\r\nSampling rate                            : 48.0 KHz\r\nFrame rate                               : 46.875 fps (1024 spf)\r\nCompression mode                         : Lossy\r\nStream size                              : 41.9 MiB (12%)","torrent":{"xt":"urn:btih:261969c2c0ccf65749d648f9d58db5af50d4e16b","amp;dn":"Gogglebox+Au+-+S04E01","amp;tr":["udp%3A%2F%2Ftracker.leechers-paradise.org%3A6969","udp%3A%2F%2Fzer0day.ch%3A1337","udp%3A%2F%2Fopen.demonii.com%3A1337","udp%3A%2F%2Ftracker.coppersurfer.tk%3A6969","udp%3A%2F%2Fexodus.desync.com%3A6969"],"infoHash":"261969c2c0ccf65749d648f9d58db5af50d4e16b","infoHashBuffer":{"type":"Buffer","data":[38,25,105,194,192,204,246,87,73,214,72,249,213,141,181,175,80,212,225,107]},"announce":[],"urlList":[]}}